<?xml version="1.0" encoding="utf-8"?>
<!-- Generator: Adobe Illustrator 16.0.4, SVG Export Plug-In . SVG Version: 6.00 Build 0)  -->
<!DOCTYPE svg PUBLIC "-//W3C//DTD SVG 1.1//EN" "http://www.w3.org/Graphics/SVG/1.1/DTD/svg11.dtd">
<svg version="1.1" id="レイヤー_1" xmlns="http://www.w3.org/2000/svg" xmlns:xlink="http://www.w3.org/1999/xlink" x="0px"
	 y="0px" width="595.28px" height="135px" viewBox="0 0 595.28 135" enable-background="new 0 0 595.28 135" xml:space="preserve">
<g>
	<polygon fill="none" points="358.734,129.375 363.567,129.375 363.567,50.625 357.163,50.625 284.817,50.625 284.817,129.375 	"/>
	<polygon points="99.198,73.125 183.572,73.125 183.572,129.375 99.198,129.375 99.198,135 189.195,135 189.195,67.503 
		104.821,67.503 104.821,50.625 189.195,50.625 189.195,45.002 99.198,45.002 	"/>
	<polygon points="211.697,50.625 251.069,50.625 251.069,135 256.697,135 256.697,45.002 211.697,45.002 	"/>
	<rect x="211.697" y="22.5" width="33.749" height="5.625"/>
	<path d="M397.316,0h-5.623v135h5.623V92.699c10.495,5.258,18.592,9.301,24.301,12.151c5.694,2.857,9.859,4.947,12.491,6.298
		c2.62,1.352,4.386,2.252,5.279,2.703c0.906,0.447,2.663,1.348,5.292,2.7c2.616,1.351,6.788,3.452,12.49,6.299
		c5.699,2.846,13.866,6.9,24.521,12.15v-5.625L401.814,90l79.876-39.375v-5.623l-84.374,42.302V0z"/>
	<polygon points="594.189,50.625 594.189,45.002 504.189,45.002 504.189,73.125 588.566,73.125 588.566,129.375 504.189,129.375 
		504.189,135 594.189,135 594.189,67.503 509.816,67.503 509.816,50.625 	"/>
	<polygon fill="#AFAFAF" points="279.195,53.304 284.817,53.304 284.817,5.624 369.192,5.624 369.192,0 279.195,0 	"/>
	<rect x="363.567" y="49.795" fill="#AFAFAF" width="5.625" height="80.411"/>
	<polygon points="369.192,50.625 369.192,45.002 279.195,45.002 279.195,135 369.192,135 369.192,129.375 284.817,129.375 
		284.817,50.625 	"/>
</g>
<path fill="#231815" d="M93.989,0h6.702L7.787,135H0.343L93.989,0z"/>
</svg>
